# xmcd
#
# Track frame offsets:
#  150
#  11774
#  21569
#  32945
#  43817
#  57180
#  69815
#  82306
#  94836
#  108243
#  119576
#  131803
#  145410
#  157957
#  170982
#  183014
#  194946
#  207177
#  220090
#  232433
#  244940
#  255565
#  267734
#  280570
#  292309
#  306410
#
# Disc length: 4270 seconds
#
# Revision: 0
# Processed by: cddbd v1.5.2PL0 Copyright (c) Steve Scherf et al.
# Submitted via: AltoMP3_Maker 3.0
#
DISCID=a910ac1a
DTITLE=Ray Price - The Complete Singles, As n' Bs - 1950-62, CD3
DYEAR=1900
DGENRE=
TTITLE0=My Shoes Keep Walking Back to You
TTITLE1=Don't Do This to Me
TTITLE2=Curtain in the Window
TTITLE3=It's All Your Fault
TTITLE4=City Lights
TTITLE5=Invitation to the Blues
TTITLE6=That's What It's Like to Be Lonesome
TTITLE7=Kissing Your Picture
TTITLE8=Heartaches by the Number
TTITLE9=Wall of Tears
TTITLE10=Same Old Me
TTITLE11=Under Your Spell Again
TTITLE12=One More Time
TTITLE13=Who'll Be the First
TTITLE14=I Can't Run Away from Myself
TTITLE15=I Wish I Could Fall in Love Today
TTITLE16=Heart over Mind
TTITLE17=The Twenty-fourth Hour
TTITLE18=Here We Are Again
TTITLE19=Soft Rain
TTITLE20=I've Just Destroyed the World
TTITLE21=Big Shoes
TTITLE22=I'm Walkin' Slow
TTITLE23=Pride
TTITLE24=Walk Me to the Door
TTITLE25=You Took Her off My Hands
EXTD=
EXTT0=
EXTT1=
EXTT2=
EXTT3=
EXTT4=
EXTT5=
EXTT6=
EXTT7=
EXTT8=
EXTT9=
EXTT10=
EXTT11=
EXTT12=
EXTT13=
EXTT14=
EXTT15=
EXTT16=
EXTT17=
EXTT18=
EXTT19=
EXTT20=
EXTT21=
EXTT22=
EXTT23=
EXTT24=
EXTT25=
PLAYORDER=
